<?xml version="1.0" encoding="UTF-8" standalone="no"?> <!-- Created with Vectornator for iOS (http://vectornator.io/) --><!DOCTYPE svg PUBLIC "-//W3C//DTD SVG 1.1//EN" "http://www.w3.org/Graphics/SVG/1.1/DTD/svg11.dtd">
<svg height="100%" style="fill-rule:evenodd;clip-rule:evenodd;stroke-linecap:round;stroke-linejoin:round;" xmlns:xlink="http://www.w3.org/1999/xlink" xmlns="http://www.w3.org/2000/svg" xml:space="preserve" width="100%" xmlns:vectornator="http://vectornator.io" version="1.1" viewBox="0 0 392.808 223.508">
<metadata>
<vectornator:setting key="DimensionsVisible" value="1"/>
<vectornator:setting key="SnapToGrid" value="0"/>
<vectornator:setting key="SnapToPoints" value="1"/>
<vectornator:setting key="GuidesVisible" value="1"/>
<vectornator:setting key="RulersVisible" value="1"/>
<vectornator:setting key="SnapToEdges" value="1"/>
<vectornator:setting key="DisplayWhiteBackground" value="0"/>
<vectornator:setting key="SnapToGuides" value="1"/>
<vectornator:setting key="GridSpacing" value="36"/>
<vectornator:setting key="Units" value="Millimeters"/>
<vectornator:setting key="DynamicGuides" value="1"/>
<vectornator:setting key="New" value="1"/>
</metadata>
<defs/>
<g id="Layer 1" vectornator:layerName="Layer 1">
<path d="M122.86+5.71199L198.881+43.3434C226.062+56.7984+237.19+89.7405+223.735+116.922L186.103+192.943C172.648+220.124+139.706+231.251+112.525+217.796L36.5039+180.165C9.32279+166.71-1.80442+133.768+11.6506+106.587L49.282+30.5653C62.737+3.38422+95.679-7.74299+122.86+5.71199Z" opacity="1" fill="#393939"/>
<path d="M59.8014+115.509L67.7283+99.4949C69.0531+103.571+70.8818+107.08+73.2145+110.022C75.5473+112.965+78.2588+115.201+81.3491+116.731C84.9701+118.523+88.0716+118.931+90.6534+117.955C93.2353+116.979+95.5074+114.509+97.4699+110.545L114.946+75.2398L98.0429+66.8725L104.069+54.6984L134.785+69.9033L111.283+117.382C107.064+125.904+102.26+131.114+96.8704+133.013C91.4806+134.911+84.6809+133.829+76.4712+129.765C73.5057+128.297+70.6084+126.357+67.7794+123.947C64.9503+121.536+62.291+118.723+59.8014+115.509Z" opacity="1" fill="#bff0ff"/>
<path d="M160.628+116.741C157.35+115.118+154.06+115.287+150.758+117.248C147.456+119.208+144.53+122.763+141.98+127.914C139.431+133.065+138.378+137.547+138.821+141.362C139.265+145.176+141.125+147.895+144.403+149.517C147.712+151.155+151.018+150.994+154.32+149.034C157.622+147.073+160.548+143.518+163.098+138.367C165.647+133.217+166.7+128.734+166.257+124.92C165.813+121.105+163.937+118.379+160.628+116.741ZM128.261+121.123C132.448+112.663+137.96+107.045+144.795+104.269C151.63+101.492+158.746+101.935+166.144+105.597C173.574+109.275+178.256+114.673+180.193+121.791C182.13+128.91+181.004+136.699+176.817+145.159C172.629+153.618+167.118+159.236+160.283+162.013C153.448+164.789+146.316+164.339+138.887+160.661C131.489+156.999+126.821+151.609+124.885+144.49C122.948+137.371+124.073+129.582+128.261+121.123Z" opacity="1" fill="#cb85ff"/>
<path d="M232.64+165.444C228.982+165.444+226.109+167.055+224.019+170.277C221.929+173.499+220.884+177.983+220.884+183.73C220.884+189.478+221.929+193.962+224.019+197.184C226.109+200.406+228.982+202.017+232.64+202.017C236.332+202.017+239.223+200.406+241.313+197.184C243.402+193.962+244.447+189.478+244.447+183.73C244.447+177.983+243.402+173.499+241.313+170.277C239.223+167.055+236.332+165.444+232.64+165.444ZM205.576+183.73C205.576+174.291+208.023+166.811+212.917+161.291C217.811+155.77+224.385+153.01+232.64+153.01C240.929+153.01+247.521+155.77+252.415+161.291C257.309+166.811+259.755+174.291+259.755+183.73C259.755+193.17+257.309+200.65+252.415+206.17C247.521+211.691+240.929+214.451+232.64+214.451C224.385+214.451+217.811+211.691+212.917+206.17C208.023+200.65+205.576+193.17+205.576+183.73Z" opacity="1" fill="#393939"/>
<path d="M309.285+183.835C309.285+178.192+308.344+173.769+306.463+170.564C304.583+167.36+301.988+165.758+298.679+165.758C295.37+165.758+292.758+167.36+290.842+170.564C288.926+173.769+287.968+178.192+287.968+183.835C287.968+189.478+288.926+193.901+290.842+197.105C292.758+200.31+295.37+201.912+298.679+201.912C301.988+201.912+304.583+200.31+306.463+197.105C308.344+193.901+309.285+189.478+309.285+183.835ZM287.968+162.728C289.849+159.488+292.035+157.059+294.525+155.439C297.016+153.82+299.828+153.01+302.963+153.01C309.894+153.01+315.232+155.657+318.976+160.951C322.721+166.245+324.593+173.839+324.593+183.73C324.593+193.483+322.747+201.041+319.055+206.405C315.363+211.769+310.173+214.451+303.485+214.451C299.968+214.451+296.902+213.598+294.29+211.891C291.678+210.184+289.571+207.642+287.968+204.263L287.968+212.936L272.712+212.936L272.712+131.641L287.968+131.641L287.968+162.728Z" opacity="1" fill="#393939"/>
<path d="M337.654+192.508L337.654+154.42L352.962+154.42L352.962+190.157C352.962+194.371+353.555+197.384+354.739+199.195C355.923+201.007+357.891+201.912+360.643+201.912C363.394+201.912+365.545+200.693+367.095+198.255C368.645+195.817+369.42+192.403+369.42+188.015L369.42+154.42L384.728+154.42L384.728+212.936L369.42+212.936L369.42+204.263C368.34+207.502+366.503+210.01+363.908+211.787C361.313+213.563+358.187+214.451+354.53+214.451C348.957+214.451+344.751+212.605+341.912+208.913C339.074+205.221+337.654+199.753+337.654+192.508Z" opacity="1" fill="#393939"/>
</g>
</svg>
