<?xml version="1.0" encoding="UTF-8" standalone="no"?> <!-- Created with Vectornator for iOS (http://vectornator.io/) --><!DOCTYPE svg PUBLIC "-//W3C//DTD SVG 1.1//EN" "http://www.w3.org/Graphics/SVG/1.1/DTD/svg11.dtd">
<svg height="100%" style="fill-rule:evenodd;clip-rule:evenodd;stroke-linecap:round;stroke-linejoin:round;" xmlns:xlink="http://www.w3.org/1999/xlink" xmlns="http://www.w3.org/2000/svg" xml:space="preserve" width="100%" xmlns:vectornator="http://vectornator.io" version="1.1" viewBox="0 0 284.314 136.292">
<metadata>
<vectornator:setting key="DimensionsVisible" value="1"/>
<vectornator:setting key="SnapToGrid" value="0"/>
<vectornator:setting key="IsolateActiveLayer" value="0"/>
<vectornator:setting key="SnapToPoints" value="1"/>
<vectornator:setting key="GuidesVisible" value="1"/>
<vectornator:setting key="RulersVisible" value="1"/>
<vectornator:setting key="SnapToEdges" value="1"/>
<vectornator:setting key="DisplayWhiteBackground" value="0"/>
<vectornator:setting key="SnapToGuides" value="1"/>
<vectornator:setting key="GridSpacing" value="36"/>
<vectornator:setting key="Units" value="Millimeters"/>
<vectornator:setting key="DynamicGuides" value="1"/>
<vectornator:setting key="New" value="1"/>
</metadata>
<defs/>
<g id="Layer 1" vectornator:layerName="Layer 1">
<g opacity="1">
<path d="M30.9218+0.02664L136.718+30.0621C137.088+30.1671+137.303+30.552+137.198+30.9218L107.162+136.718C107.057+137.088+106.672+137.303+106.302+137.198L0.506137+107.162C0.13633+107.057-0.0783478+106.672+0.02664+106.302L30.0621+0.506137C30.1671+0.13633+30.552-0.0783478+30.9218+0.02664Z" opacity="1" fill="#000000"/>
<path d="M23.7047+85.9431C25.2235+87.3306+28.6893+89.2709+32.7604+90.4267C42.7612+93.2659+48.4273+88.4669+50.5378+81.0327L64.6836+31.2058L59.3735+29.6982L45.2277+79.5251C43.5694+85.3663+40.5397+87.2796+34.8755+85.6716C30.8929+84.5409+28.5525+83.0157+26.9703+81.5146L23.7047+85.9431Z" opacity="1" fill="#7bcdf5"/>
<path d="M73.0715+74.4235C76.8152+61.2366+82.3414+55.9197+92.2537+58.7338C102.166+61.5479+104.555+69.3031+100.711+82.844C96.9668+96.0309+91.4155+101.436+81.5032+98.6222C71.5909+95.8081+69.2272+87.9644+73.0715+74.4235ZM79.6154+103.251C93.6873+107.246+101.975+98.6005+106.171+83.8206C110.292+69.3061+108.125+58.0753+94.1415+54.1054C80.0696+50.1104+71.8066+58.6671+67.6106+73.447C63.4899+87.9614+65.632+99.2807+79.6154+103.251Z" opacity="1" fill="#7ba5f5"/>
</g>
<path d="M135.744+90.9122C135.744+77.2042+139.608+70.5802+149.912+70.5802C160.216+70.5802+164.632+77.3882+164.632+91.4642C164.632+105.172+160.768+111.888+150.464+111.888C140.16+111.888+135.744+104.988+135.744+90.9122ZM149.912+116.856C164.54+116.856+170.152+106.276+170.152+90.9122C170.152+75.8242+165+65.6122+150.464+65.6122C135.836+65.6122+130.224+76.1002+130.224+91.4642C130.224+106.552+135.376+116.856+149.912+116.856Z" opacity="1" fill="#000000"/>
<path d="M183.492+114.556C186.16+115.936+190.852+117.04+196.464+117.04C212.84+117.04+220.568+106+220.568+89.6242C220.568+73.0642+212.012+66.1642+201.892+66.1642C195.084+66.1642+190.668+69.0162+189.196+70.3042L188.828+70.3042L188.828+46.2922L183.492+46.2922L183.492+114.556ZM197.66+112.072C194.164+112.072+190.944+111.428+188.828+110.508L188.828+76.5602C191.404+73.0642+196.096+71.0402+200.328+71.0402C207.596+71.0402+215.048+75.2722+215.048+90.6362C215.048+104.804+207.964+112.072+197.66+112.072Z" opacity="1" fill="#000000"/>
<path d="M233.632+100.664C233.908+111.796+239.796+117.132+249.824+117.132C258.656+117.132+263.256+112.256+264.268+110.784L264.636+110.784L265.832+116.12L269.788+116.12L269.788+66.5322L264.452+66.5322L264.452+98.5482C264.452+108.208+258.288+112.164+250.928+112.164C242.74+112.164+238.968+107.932+238.968+99.1002L238.968+66.5322L233.632+66.5322L233.632+100.664Z" opacity="1" fill="#000000"/>
</g>
</svg>
